<?xml version="1.0" ?><!DOCTYPE svg  PUBLIC '-//W3C//DTD SVG 1.1//EN'  'http://www.w3.org/Graphics/SVG/1.1/DTD/svg11.dtd'><svg enable-background="new 0 0 128 128" height="128px" id="Слой_1" version="1.1" viewBox="0 0 128 128" width="128px" xml:space="preserve" xmlns="http://www.w3.org/2000/svg" xmlns:xlink="http://www.w3.org/1999/xlink"><g><path d="M118.923,90.234H35.327V66.075h10.662c1.266,0,2.474-0.533,3.326-1.469l5.613-6.16   c1.565-1.718,1.565-4.344,0-6.062l-5.613-6.159c-0.853-0.936-2.06-1.469-3.326-1.469H35.327V30.23c0-2.485-2.015-4.5-4.5-4.5   s-4.5,2.015-4.5,4.5v2.206H15.665c-1.266,0-2.474,0.533-3.326,1.469l-5.612,6.159c-1.565,1.717-1.565,4.344,0,6.062l5.612,6.16   c0.853,0.936,2.061,1.469,3.327,1.469h4.114v7.819c0,2.485,2.015,4.5,4.5,4.5h2.048v24.159H8.923c-2.485,0-4.5,2.015-4.5,4.5   s2.015,4.5,4.5,4.5h110c2.485,0,4.5-2.015,4.5-4.5S121.408,90.234,118.923,90.234z M16.14,43.096l1.512-1.659h8.675v3.319h-8.674   L16.14,43.096z M30.827,53.756h13.174l1.512,1.659L44,57.075H28.779v-3.319H30.827z" fill="#E4E9EA"/><path d="M59.276,46.322H90.57c2.485,0,4.5-2.015,4.5-4.5s-2.015-4.5-4.5-4.5H74.354   c1.561-2.693,4.468-4.514,7.798-4.514c0.602,0,1.207,0.06,1.8,0.179c2.444,0.486,4.809-1.092,5.296-3.529   c0.012-0.058,0.008-0.114,0.017-0.171c0.014-0.052,0.038-0.098,0.05-0.15c0.622-2.807,3.165-4.844,6.048-4.844   c3.417,0,6.196,2.779,6.196,6.194c0,0.053,0.014,0.103,0.016,0.156c-0.058,0.665,0.016,1.349,0.274,2.013   c0.902,2.315,3.509,3.462,5.827,2.559c0.389-0.151,0.799-0.228,1.22-0.228c1.851,0,3.356,1.506,3.356,3.356   c0,0.523-0.115,1.022-0.344,1.483c-1.104,2.227-0.192,4.927,2.035,6.03c0.642,0.318,1.322,0.469,1.993,0.469   c1.657,0,3.251-0.918,4.036-2.503c0.849-1.713,1.279-3.557,1.279-5.478c0-6.478-5.013-11.796-11.361-12.306   c-1.907-6.213-7.697-10.745-14.528-10.745c-5.855,0-11.134,3.439-13.644,8.538C73.534,24.027,66.702,29.7,64.73,37.322h-5.455   c-2.485,0-4.5,2.015-4.5,4.5S56.791,46.322,59.276,46.322z" fill="#E4E9EA"/></g><path d="M66.248,54.117c2.033-2.479,4.133-8.527-0.893-15.476c-0.742-1.025-1.924-1.64-3.189-1.656  c-0.018,0-0.035,0-0.052,0c-1.246,0-2.422,0.581-3.179,1.572L46.621,54.682c-4.857,6.361-3.635,15.489,2.725,20.348  c0.725,0.554,1.579,0.821,2.425,0.821c0.001,0,0.002,0,0.003,0c0.001,0,0.002,0,0.003,0c0.266,0,0.533-0.036,0.797-0.091  c0.053-0.011,0.105-0.021,0.159-0.034c0.254-0.063,0.504-0.146,0.748-0.262c0.041-0.02,0.079-0.045,0.12-0.065  c0.117-0.061,0.234-0.117,0.347-0.19l8.531-5.527c0.204-0.133,0.395-0.282,0.572-0.449c0.442-0.418,4.318-4.231,4.104-9.354  c-0.057-1.354-0.426-3.116-1.601-4.938L66.248,54.117z" fill="#FFBD1F"/><path d="M52.582,59.232l4.606-6.031c1.173-1.536,0.879-3.732-0.657-4.906c-1.537-1.175-3.733-0.88-4.906,0.657  l-4.607,6.032l0,0c-3.609,4.727-3.841,11.24-0.577,16.206c0.672,1.023,1.789,1.578,2.928,1.578c0.659,0,1.326-0.186,1.919-0.575  c1.615-1.062,2.064-3.231,1.002-4.847C50.658,64.861,50.774,61.601,52.582,59.232C52.582,59.233,52.582,59.233,52.582,59.232z" fill="#FFCE4E"/><g><path d="M47.73,68.39c-1.727,0-3.229-1.277-3.465-3.036c-0.399-2.98,0.149-5.946,1.586-8.576   c0.926-1.697,3.052-2.321,4.75-1.394c1.696,0.927,2.32,3.053,1.394,4.75c-0.718,1.314-0.991,2.798-0.791,4.292   c0.256,1.916-1.089,3.677-3.005,3.933C48.042,68.38,47.885,68.39,47.73,68.39z" fill="#FFF0B3"/></g><g><path d="M59.759,27.333c-0.284,0-0.573-0.031-0.862-0.094l-7.494-1.646c-2.158-0.474-3.523-2.607-3.049-4.765   c0.473-2.158,2.606-3.526,4.765-3.049l7.494,1.646c2.158,0.474,3.523,2.607,3.049,4.765C63.251,26.059,61.596,27.333,59.759,27.333   z" fill="#EA075F"/></g><g><path d="M85.259,104.673c-0.601,0-1.198-0.064-1.777-0.191c-2.256-0.495-4.172-1.93-5.396-4.037   c-1.645-2.835-1.919-6.598-0.752-10.323c1.794-5.727,6.403-9.727,11.211-9.727c0.6,0,1.198,0.064,1.777,0.191   c2.256,0.496,4.172,1.93,5.395,4.037c1.645,2.835,1.918,6.599,0.751,10.324C94.674,100.674,90.064,104.673,85.259,104.673z    M88.545,87.395c-1.268,0-3.546,1.675-4.531,4.818c-0.674,2.154-0.376,3.851,0.128,4.719c0.351,0.604,0.72,0.686,0.841,0.712   c0.089,0.02,0.179,0.029,0.276,0.029c1.266,0,3.544-1.675,4.529-4.818c0.675-2.154,0.377-3.851-0.127-4.72   c-0.351-0.604-0.719-0.685-0.841-0.711C88.732,87.404,88.643,87.395,88.545,87.395z" fill="#3A3C47"/></g><path d="M87.651,89.115l-24.467-5.371c0.388-3.417-0.183-6.672-1.694-9.277c-1.48-2.551-3.789-4.284-6.501-4.88  c-1.888-0.406-3.754,0.78-4.169,2.668c-0.415,1.889,0.78,3.755,2.668,4.17c0.795,0.174,1.45,0.697,1.947,1.555  c0.643,1.107,0.927,2.611,0.85,4.25l-1.578-0.347c-1.887-0.407-3.754,0.78-4.169,2.668c-0.415,1.889,0.78,3.755,2.668,4.17  l32.944,7.232c0.253,0.055,0.506,0.082,0.754,0.082c1.608,0,3.057-1.115,3.416-2.75C90.733,91.396,89.539,89.53,87.651,89.115z" fill="#14C4ED"/><g><path d="M49.531,80.146c-0.346,0-0.698-0.052-1.046-0.161c-1.845-0.577-2.873-2.54-2.295-4.385l2.252-7.197   c0.577-1.845,2.542-2.874,4.385-2.295c1.845,0.577,2.873,2.54,2.295,4.385l-2.252,7.197C52.402,79.187,51.021,80.146,49.531,80.146   z" fill="#14C4ED"/></g><g><path d="M48.975,96.707c-0.6,0-1.198-0.064-1.777-0.191c-2.256-0.495-4.172-1.929-5.395-4.037   c-1.645-2.835-1.918-6.598-0.751-10.322c1.792-5.727,6.401-9.727,11.208-9.727c0.601,0,1.2,0.064,1.779,0.192   c2.255,0.494,4.171,1.928,5.393,4.035c1.645,2.835,1.919,6.598,0.752,10.324C58.392,92.708,53.782,96.707,48.975,96.707z    M52.26,79.43c-1.267,0-3.545,1.674-4.528,4.817c-0.675,2.156-0.377,3.852,0.126,4.72c0.35,0.604,0.719,0.685,0.84,0.711   c1.234,0.274,3.746-1.402,4.806-4.788c0.675-2.155,0.377-3.852-0.126-4.72c-0.35-0.604-0.719-0.685-0.84-0.711   C52.449,79.439,52.358,79.43,52.26,79.43z" fill="#3A3C47"/></g><path d="M77.446,23.635l-15.111-3.317c-1.89-0.415-3.754,0.78-4.169,2.668c-0.415,1.888,0.78,3.754,2.668,4.169  l3.825,0.84l-12.879,41.14c-0.577,1.845,0.45,3.809,2.295,4.386c0.348,0.109,0.7,0.161,1.046,0.161c1.49,0,2.871-0.959,3.339-2.455  l13.061-41.725l4.422,0.971c0.253,0.056,0.506,0.083,0.754,0.083c1.608,0,3.057-1.115,3.416-2.75  C80.528,25.916,79.334,24.05,77.446,23.635z" fill="#C0D2DD"/><path d="M62.338,47.13c-1.843-0.577-3.809,0.45-4.386,2.294l-5.212,16.649l-0.207-0.046  c-1.887-0.415-3.754,0.78-4.169,2.669c-0.415,1.888,0.78,3.754,2.668,4.169l2.948,0.646l-2.681,8.563  c-0.826,0.475-1.462,1.271-1.682,2.274c-0.415,1.888,0.78,3.755,2.668,4.169l0.921,0.202c0.029,0.006,0.057,0.004,0.085,0.01  c0.223,0.043,0.445,0.072,0.666,0.072c0,0,0.001,0,0.001,0s0,0,0.001,0c0.011,0,0.021-0.003,0.032-0.003  c0.182-0.002,0.361-0.017,0.538-0.046c0.074-0.013,0.144-0.036,0.216-0.053c0.112-0.026,0.225-0.051,0.333-0.087  c0.078-0.026,0.151-0.063,0.227-0.095c0.099-0.041,0.198-0.081,0.292-0.131c0.073-0.039,0.141-0.085,0.211-0.129  c0.09-0.057,0.18-0.112,0.264-0.177c0.066-0.051,0.127-0.106,0.189-0.161c0.08-0.069,0.158-0.141,0.231-0.218  c0.058-0.062,0.111-0.127,0.165-0.192c0.067-0.081,0.131-0.164,0.19-0.252c0.05-0.072,0.094-0.148,0.138-0.226  c0.052-0.091,0.101-0.183,0.145-0.279c0.038-0.083,0.071-0.167,0.103-0.253c0.019-0.053,0.045-0.101,0.063-0.154l4.504-14.389  c0.293-0.937,0.18-1.953-0.313-2.802c-0.424-0.733-1.105-1.265-1.897-1.537l5.042-16.104C65.21,49.672,64.183,47.708,62.338,47.13z" fill="#14C4ED"/><g><path d="M78.898,94.278c-0.347,0-0.698-0.052-1.047-0.161c-1.845-0.577-2.872-2.541-2.294-4.386   c2.461-7.863,9.278-12.95,15.526-11.579c1.889,0.415,3.083,2.281,2.669,4.169c-0.415,1.888-2.284,3.078-4.169,2.669   c-2.308-0.507-5.931,2.31-7.347,6.833C81.77,93.319,80.388,94.278,78.898,94.278z" fill="#14C4ED"/></g><g><path d="M43.714,92.254c-0.723,0-1.421-0.393-1.777-1.079c-1.261-2.431-1.418-5.633-0.432-8.784   c0.895-2.863,2.674-5.408,4.879-6.98c0.899-0.642,2.147-0.434,2.79,0.467c0.641,0.899,0.432,2.148-0.467,2.789   c-1.51,1.077-2.744,2.87-3.384,4.918c-0.664,2.121-0.602,4.271,0.166,5.749c0.509,0.98,0.126,2.188-0.854,2.696   C44.339,92.182,44.024,92.254,43.714,92.254z" fill="#5A5B60"/></g><g><path d="M56.18,65.48c-0.197,0-0.396-0.029-0.594-0.091c-1.055-0.328-1.644-1.449-1.316-2.504l4.156-13.371   c0.328-1.054,1.449-1.644,2.503-1.316s1.644,1.449,1.316,2.503l-4.156,13.371C57.823,64.93,57.033,65.48,56.18,65.48z" fill="#1BD1EF"/></g><g><path d="M82.465,85.399c-0.529,0-1.058-0.209-1.45-0.623c-0.761-0.801-0.728-2.067,0.073-2.827   c2.025-1.923,4.417-3.094,6.736-3.298c1.108-0.089,2.071,0.717,2.168,1.816c0.097,1.101-0.717,2.071-1.816,2.168   c-1.423,0.125-2.962,0.912-4.334,2.214C83.455,85.217,82.96,85.399,82.465,85.399z" fill="#1BD1EF"/></g><g><path d="M59.16,55.894c-0.196,0-0.396-0.029-0.594-0.09c-1.055-0.328-1.645-1.449-1.317-2.503l1.176-3.785   c0.328-1.055,1.446-1.644,2.503-1.317c1.055,0.328,1.645,1.449,1.317,2.503l-1.176,3.785C60.803,55.344,60.013,55.894,59.16,55.894   z" fill="#49E1E8"/></g><g><path d="M85.674,83.243c-0.778,0-1.519-0.458-1.842-1.22c-0.432-1.017,0.043-2.191,1.06-2.622   c0.971-0.412,1.958-0.664,2.934-0.75c1.107-0.106,2.071,0.717,2.167,1.817c0.097,1.101-0.717,2.07-1.817,2.167   c-0.558,0.049-1.137,0.199-1.721,0.447C86.199,83.191,85.935,83.243,85.674,83.243z" fill="#8DDAC8"/></g><g><path d="M45.598,80.884c-0.445,0-0.892-0.147-1.263-0.45c-0.856-0.698-0.984-1.958-0.286-2.814   c0.707-0.866,1.494-1.61,2.337-2.211c0.9-0.64,2.148-0.431,2.789,0.471c0.641,0.899,0.43,2.148-0.47,2.789   c-0.553,0.393-1.077,0.891-1.557,1.48C46.753,80.633,46.178,80.884,45.598,80.884z" fill="#9FA0A5"/></g><path d="M74.194,24.457l-13.157-2.889c-1.079-0.237-2.145,0.446-2.382,1.525c-0.237,1.079,0.446,2.146,1.525,2.382  l5.424,1.191l-4.384,14.006c-0.33,1.054,0.257,2.176,1.311,2.506c0.199,0.062,0.4,0.092,0.598,0.092  c0.851,0,1.641-0.548,1.908-1.403l4.489-14.34l3.812,0.837c0.145,0.032,0.288,0.047,0.431,0.047c0.919,0,1.746-0.637,1.951-1.572  C75.956,25.76,75.273,24.693,74.194,24.457z" fill="#D3DEE2"/><path d="M68.593,23.227l-2.535-0.557c-1.074-0.235-2.145,0.446-2.382,1.525c-0.237,1.079,0.446,2.146,1.525,2.382  l0.403,0.088l-0.479,1.532c-0.33,1.054,0.258,2.176,1.312,2.506c0.199,0.063,0.4,0.092,0.599,0.092c0.851,0,1.641-0.548,1.908-1.403  l1.131-3.614c0.007-0.022,0.004-0.036,0.009-0.058c0.011-0.038,0.026-0.072,0.035-0.111C70.354,24.531,69.672,23.464,68.593,23.227z  " fill="#E6ECED"/><g><path d="M82.756,92.6c-0.142,0-0.286-0.015-0.431-0.047l-2.564-0.563c-1.079-0.236-1.762-1.303-1.524-2.382   c0.235-1.078,1.302-1.766,2.382-1.524l2.564,0.563c1.079,0.236,1.762,1.303,1.524,2.382C84.503,91.963,83.675,92.6,82.756,92.6z" fill="#1BD1EF"/></g><path d="M57.813,68.724l-6.678-1.466c-1.08-0.24-2.146,0.445-2.382,1.524s0.446,2.146,1.525,2.382l4.546,0.998  l-1.366,4.363c-0.33,1.055,0.257,2.177,1.311,2.506c0.199,0.063,0.4,0.093,0.598,0.093c0.851,0,1.641-0.548,1.908-1.403l2.018-6.446  c0.006-0.019,0.002-0.028,0.006-0.046c0.012-0.042,0.029-0.08,0.039-0.123C59.575,70.026,58.893,68.96,57.813,68.724z" fill="#1BD1EF"/><g><path d="M54.359,72.013c-0.142,0-0.286-0.015-0.431-0.047l-2.673-0.587c-1.079-0.236-1.762-1.303-1.525-2.382   s1.302-1.765,2.382-1.524l2.673,0.587c1.079,0.236,1.762,1.303,1.525,2.382C56.105,71.376,55.278,72.013,54.359,72.013z" fill="#49E1E8"/></g><g><path d="M85.461,32.976c-0.284,0-0.572-0.031-0.861-0.094l-8.96-1.967c-2.158-0.474-3.523-2.606-3.05-4.764   c0.474-2.158,2.605-3.521,4.765-3.049l8.96,1.967c2.158,0.474,3.523,2.606,3.05,4.764C88.954,31.701,87.299,32.976,85.461,32.976z" fill="#EA075F"/></g><g><path d="M54.653,24.212c-0.142,0-0.287-0.015-0.431-0.047l-3.833-0.842c-1.079-0.237-1.761-1.304-1.524-2.383   c0.238-1.078,1.304-1.761,2.383-1.524l3.833,0.842c1.079,0.237,1.761,1.304,1.524,2.383C56.399,23.575,55.572,24.212,54.653,24.212   z" fill="#F44293"/></g><g><path d="M81.482,30.102c-0.143,0-0.286-0.015-0.431-0.047l-6.447-1.415c-1.079-0.237-1.762-1.304-1.524-2.382   c0.237-1.079,1.309-1.761,2.382-1.525l6.447,1.415c1.079,0.237,1.762,1.304,1.524,2.382C83.229,29.465,82.401,30.102,81.482,30.102   z" fill="#F44293"/></g><path d="M91.513,51.51c-0.16-1.255-0.905-2.36-2.008-2.98c-1.103-0.62-2.433-0.681-3.59-0.166l-18.529,8.266  c-7.31,3.261-10.605,11.86-7.345,19.169c0.566,1.27,1.714,2.094,2.989,2.31c0.027,0.007,0.055,0.014,0.085,0.019  c0.01,0.002,0.02,0.003,0.03,0.004c0.143,0.024,0.314,0.038,0.532,0.039c0.007,0,0.013,0.001,0.02,0.001  c0.006,0,0.013-0.002,0.019-0.002c0.094-0.001,0.188-0.004,0.282-0.011l10.136-0.771c0.242-0.019,0.482-0.059,0.717-0.12  c0.589-0.155,5.817-1.648,8.08-6.249c0.599-1.216,1.117-2.939,0.957-5.102l1.003-0.391C87.861,64.323,92.6,60.017,91.513,51.51z" fill="#FFBD1F"/><path d="M79.144,55.765c-0.788-1.766-2.858-2.558-4.622-1.771l-6.932,3.092c-5.431,2.422-8.751,8.029-8.263,13.954  c0.151,1.828,1.682,3.212,3.484,3.212c0.097,0,0.194-0.004,0.292-0.012c1.927-0.159,3.359-1.85,3.2-3.776  c-0.244-2.965,1.419-5.772,4.139-6.985l6.932-3.092C79.139,59.6,79.931,57.53,79.144,55.765z" fill="#FFCE4E"/><g><path d="M63.478,69.626c-0.417,0-0.84-0.075-1.252-0.232c-1.805-0.692-2.707-2.717-2.015-4.521   c1.077-2.808,2.978-5.15,5.498-6.771c1.624-1.043,3.791-0.577,4.837,1.049c1.046,1.625,0.576,3.792-1.05,4.837   c-1.258,0.81-2.209,1.982-2.748,3.391C66.213,68.771,64.885,69.626,63.478,69.626z" fill="#FFF0B3"/></g></svg>